<svg width="88" height="29" viewBox="0 0 88 29" fill="none" xmlns="http://www.w3.org/2000/svg">
<path d="M5.03999 24.228H13.32V28.224H-8.58307e-06V3.096H5.03999V24.228ZM19.0794 5.904C18.1914 5.904 17.4474 5.628 16.8474 5.076C16.2714 4.5 15.9834 3.792 15.9834 2.952C15.9834 2.112 16.2714 1.416 16.8474 0.863997C17.4474 0.287997 18.1914 -2.38419e-06 19.0794 -2.38419e-06C19.9674 -2.38419e-06 20.6994 0.287997 21.2754 0.863997C21.8754 1.416 22.1754 2.112 22.1754 2.952C22.1754 3.792 21.8754 4.5 21.2754 5.076C20.6994 5.628 19.9674 5.904 19.0794 5.904ZM21.5634 8.28V28.224H16.5234V8.28H21.5634ZM34.859 23.58L39.899 8.28H45.263L37.883 28.224H31.763L24.419 8.28H29.819L34.859 23.58ZM84.7437 28.476C83.8317 28.476 83.0757 28.2 82.4757 27.648C81.8997 27.072 81.6117 26.364 81.6117 25.524C81.6117 24.684 81.8997 23.988 82.4757 23.436C83.0757 22.86 83.8317 22.572 84.7437 22.572C85.6317 22.572 86.3637 22.86 86.9397 23.436C87.5157 23.988 87.8037 24.684 87.8037 25.524C87.8037 26.364 87.5157 27.072 86.9397 27.648C86.3637 28.2 85.6317 28.476 84.7437 28.476Z" fill="#FBFBFB"/>
<path d="M50.6497 5.904C49.7617 5.904 49.0177 5.628 48.4177 5.076C47.8417 4.5 47.5537 3.792 47.5537 2.952C47.5537 2.112 47.8417 1.416 48.4177 0.863997C49.0177 0.287997 49.7617 -2.38419e-06 50.6497 -2.38419e-06C51.5377 -2.38419e-06 52.2697 0.287997 52.8457 0.863997C53.4457 1.416 53.7457 2.112 53.7457 2.952C53.7457 3.792 53.4457 4.5 52.8457 5.076C52.2697 5.628 51.5377 5.904 50.6497 5.904ZM53.1337 8.28V28.224H48.0937V8.28H53.1337ZM56.8173 18.18C56.8173 16.164 57.2133 14.376 58.0053 12.816C58.8213 11.256 59.9133 10.056 61.2813 9.216C62.6733 8.376 64.2213 7.956 65.9253 7.956C67.4133 7.956 68.7093 8.256 69.8133 8.856C70.9413 9.456 71.8413 10.212 72.5133 11.124V8.28H77.5893V28.224H72.5133V25.308C71.8653 26.244 70.9653 27.024 69.8133 27.648C68.6853 28.248 67.3773 28.548 65.8893 28.548C64.2093 28.548 62.6733 28.116 61.2813 27.252C59.9133 26.388 58.8213 25.176 58.0053 23.616C57.2133 22.032 56.8173 20.22 56.8173 18.18ZM72.5133 18.252C72.5133 17.028 72.2733 15.984 71.7933 15.12C71.3133 14.232 70.6653 13.56 69.8493 13.104C69.0333 12.624 68.1573 12.384 67.2213 12.384C66.2853 12.384 65.4213 12.612 64.6293 13.068C63.8373 13.524 63.1893 14.196 62.6853 15.084C62.2053 15.948 61.9653 16.98 61.9653 18.18C61.9653 19.38 62.2053 20.436 62.6853 21.348C63.1893 22.236 63.8373 22.92 64.6293 23.4C65.4453 23.88 66.3093 24.12 67.2213 24.12C68.1573 24.12 69.0333 23.892 69.8493 23.436C70.6653 22.956 71.3133 22.284 71.7933 21.42C72.2733 20.532 72.5133 19.476 72.5133 18.252Z" fill="#1BCFF6"/>
</svg>
