<svg width="117" height="28" viewBox="0 0 117 28" fill="none" xmlns="http://www.w3.org/2000/svg">
<path d="M27.864 27.432H18.072V25.848L21.024 24.66L18.468 18.288H9.10799L6.55199 24.66L9.43199 25.848V27.432H-1.46739e-05V25.848L2.95199 24.66L11.808 2.01601H15.516L24.732 24.66L27.864 25.848V27.432ZM17.532 15.84L13.716 5.72401L10.044 15.84H17.532ZM38.1282 27.432H28.6602V25.884L31.6842 24.696V11.844H28.6602V9.68401C29.5962 9.22801 30.6522 9.00001 31.8282 9.00001C33.0042 9.00001 33.8202 9.25201 34.2762 9.75601C34.7322 10.26 34.9842 11.004 35.0322 11.988C35.2722 11.268 35.7642 10.62 36.5082 10.044C37.3962 9.34801 38.5722 9.00001 40.0362 9.00001C40.6842 9.00001 41.2962 9.08401 41.8722 9.25201C42.4722 9.42001 42.9042 9.58801 43.1682 9.75601L43.6002 10.008V14.256H41.4402L40.9722 12.096C40.8282 11.952 40.4322 11.88 39.7842 11.88C39.1362 11.88 38.5122 11.976 37.9122 12.168C37.3122 12.336 36.8442 12.552 36.5082 12.816C35.8362 13.392 35.3562 13.98 35.0682 14.58V24.696L38.1282 25.884V27.432ZM51.0725 19.548C51.0725 21.612 51.3845 23.016 52.0085 23.76C52.6325 24.504 53.5805 24.876 54.8525 24.876C56.1245 24.876 57.1685 24.684 57.9845 24.3L58.7045 26.1C58.6085 26.22 58.4645 26.376 58.2725 26.568C58.1045 26.76 57.6605 27.024 56.9405 27.36C56.2205 27.672 55.4285 27.828 54.5645 27.828C52.3805 27.828 50.6885 27.216 49.4885 25.992C48.2885 24.744 47.6885 22.932 47.6885 20.556V12.276H45.7805V10.152L49.2365 6.69601H51.0725V9.43201H57.1205V12.276H51.0725V19.548Z" fill="#FA504D"/>
<path d="M76.0278 27.432H60.7278V24.984L71.7438 12.348H63.7878L63.1038 14.436H61.0518V9.50401H75.5238V12.348L65.0478 24.48H73.4718L74.1558 22.32H76.0278V27.432ZM88.7549 27.432H79.2869V25.884L82.3109 24.696V11.844H79.2869V9.68401C80.2229 9.22801 81.3029 9.00001 82.5269 9.00001C83.7749 9.00001 84.6149 9.30001 85.0469 9.90001C85.4789 10.476 85.6949 11.364 85.6949 12.564V24.696L88.7549 25.884V27.432ZM85.8389 4.86001C85.2869 5.41201 84.6149 5.68801 83.8229 5.68801C83.0309 5.68801 82.3589 5.41201 81.8069 4.86001C81.2549 4.30801 80.9789 3.63601 80.9789 2.84401C80.9789 2.05201 81.2549 1.38001 81.8069 0.828006C82.3589 0.276006 83.0309 5.96046e-06 83.8229 5.96046e-06C84.6149 5.96046e-06 85.2869 0.276006 85.8389 0.828006C86.3909 1.38001 86.6669 2.05201 86.6669 2.84401C86.6669 3.63601 86.3909 4.30801 85.8389 4.86001ZM100.528 27.792C97.816 27.792 95.608 27.024 93.904 25.488C92.224 23.928 91.384 21.66 91.384 18.684C91.384 15.708 92.248 13.356 93.976 11.628C95.704 9.87601 97.72 9.00001 100.024 9.00001C105.496 9.00001 108.232 12.24 108.232 18.72H94.876V18.9C94.876 20.604 95.476 22.044 96.676 23.22C97.876 24.396 99.508 24.984 101.572 24.984C102.46 24.984 103.3 24.888 104.092 24.696C104.884 24.48 105.46 24.264 105.82 24.048L106.324 23.76L107.368 25.632C107.296 25.68 107.188 25.764 107.044 25.884C106.924 25.98 106.648 26.148 106.216 26.388C105.784 26.628 105.316 26.844 104.812 27.036C103.54 27.54 102.112 27.792 100.528 27.792ZM104.884 16.416C104.764 14.928 104.272 13.8 103.408 13.032C102.568 12.24 101.464 11.844 100.096 11.844C98.752 11.844 97.636 12.228 96.748 12.996C95.86 13.74 95.284 14.88 95.02 16.416H104.884ZM115.853 27.216C115.445 27.624 114.941 27.828 114.341 27.828C113.741 27.828 113.237 27.624 112.829 27.216C112.421 26.808 112.217 26.304 112.217 25.704C112.217 25.104 112.421 24.6 112.829 24.192C113.237 23.784 113.741 23.58 114.341 23.58C114.941 23.58 115.445 23.784 115.853 24.192C116.261 24.6 116.465 25.104 116.465 25.704C116.465 26.304 116.261 26.808 115.853 27.216Z" fill="#2E2F38"/>
</svg>
