<svg width="56" height="56" viewBox="0 0 56 56" fill="none" xmlns="http://www.w3.org/2000/svg">
<path opacity="0.99" d="M42.9834 24.0117C48.1938 24.0117 52.4025 28.465 52.4025 33.4307V40.7517H33.5582V33.4307C33.5582 28.465 37.7729 24.0117 42.9834 24.0117ZM39.4715 46.9326H46.4911C46.0666 48.8742 44.6991 50.3157 42.9813 50.3158C41.2635 50.3157 39.896 48.8742 39.4715 46.9326Z" fill="#7EDAD2"/>
<path d="M7.8044 7.43216H11.3299C11.8403 7.43216 12.2512 7.84308 12.2512 8.3535V11.5693C12.2512 12.0797 11.8403 12.4906 11.3299 12.4906H7.8044C7.29397 12.4906 6.88306 12.0797 6.88306 11.5693V8.3535C6.88306 7.84308 7.29397 7.43216 7.8044 7.43216ZM7.8044 19.4032H11.3299C11.8403 19.4032 12.2512 19.8141 12.2512 20.3246V23.5403C12.2512 24.0507 11.8403 24.4617 11.3299 24.4617H7.8044C7.29397 24.4617 6.88306 24.0507 6.88306 23.5403V20.3246C6.88306 19.8141 7.29397 19.4032 7.8044 19.4032ZM7.8044 32.0484H11.3299C11.8403 32.0484 12.2512 32.4593 12.2512 32.9697V36.1855C12.2512 36.6959 11.8403 37.1068 11.3299 37.1068H7.8044C7.29397 37.1068 6.88306 36.6959 6.88306 36.1855V32.9697C6.88306 32.4593 7.29397 32.0484 7.8044 32.0484ZM7.8044 43.9153H11.3299C11.8403 43.9153 12.2512 44.3262 12.2512 44.8367V48.0524C12.2512 48.5628 11.8403 48.9738 11.3299 48.9738H7.8044C7.29397 48.9738 6.88306 48.5628 6.88306 48.0524V44.8367C6.88306 44.3262 7.29397 43.9153 7.8044 43.9153Z" fill="#7EDAD2"/>
<path opacity="0.99" d="M3.00006 0.000122553C1.36553 0.000122553 0 1.32854 0 2.96307V53.0383C0 54.6728 1.36554 56.0012 3.00006 56.0012H42.0633C43.3495 56.0012 43.4009 54.0012 41.9832 54.0012H3.00006C2.41854 54.0012 2.00004 53.5795 2.00004 53.0383V2.96307C2.00004 2.42184 2.41854 2.00016 3.00006 2.00016H32.944V7.65847C32.944 9.77101 34.6714 11.4964 36.7839 11.4964H42.0555L42.0457 15.1742C42.0457 16.5325 44.0457 16.5321 44.0457 15.178L44.0593 10.3303C44.0598 10.0682 43.9574 9.81643 43.7742 9.62909L34.6568 0.300782C34.4687 0.108438 34.211 3.7796e-05 33.9419 0L3.00006 0.000122553ZM34.9382 3.45136L40.8465 9.4964H36.7839C35.7448 9.4964 34.9382 8.69759 34.9382 7.65847V3.45136ZM7.02553 6.44752C6.89405 6.44702 6.76375 6.47244 6.64211 6.52235C6.52046 6.57226 6.40985 6.64566 6.31661 6.73836C6.22336 6.83107 6.14931 6.94125 6.09869 7.0626C6.04807 7.18395 6.02188 7.31409 6.02161 7.44558V12.4945C6.0211 12.6265 6.04672 12.7573 6.097 12.8793C6.14727 13.0013 6.2212 13.1122 6.31452 13.2055C6.40785 13.2988 6.51872 13.3728 6.64075 13.423C6.76278 13.4733 6.89356 13.4989 7.02553 13.4984H12.0764C12.2084 13.4989 12.3392 13.4733 12.4612 13.423C12.5832 13.3728 12.6941 13.2988 12.7874 13.2055C12.8807 13.1122 12.9547 13.0013 13.0049 12.8793C13.0552 12.7573 13.0808 12.6265 13.0803 12.4945V7.44558C13.0801 7.31409 13.0539 7.18395 13.0033 7.0626C12.9526 6.94125 12.8786 6.83107 12.7853 6.73836C12.6921 6.64566 12.5815 6.57226 12.4598 6.52235C12.3382 6.47244 12.2079 6.44702 12.0764 6.44752H7.02553ZM17.4867 6.55886C17.2228 6.55989 16.97 6.66516 16.7834 6.85175C16.5969 7.03833 16.4916 7.2911 16.4906 7.55497C16.4916 7.81884 16.5969 8.07161 16.7834 8.2582C16.97 8.44478 17.2228 8.55006 17.4867 8.55109H21.9965C22.1279 8.5516 22.258 8.52625 22.3795 8.47647C22.501 8.42668 22.6116 8.35345 22.7048 8.26095C22.798 8.16845 22.8721 8.0585 22.9228 7.93737C22.9736 7.81624 22.9999 7.6863 23.0005 7.55497C22.9999 7.42365 22.9736 7.29371 22.9228 7.17258C22.8721 7.05144 22.798 6.94149 22.7048 6.84899C22.6116 6.75649 22.501 6.68327 22.3795 6.63349C22.258 6.58371 22.1279 6.55834 21.9965 6.55886H17.4867ZM8.02359 8.44952H11.0783V11.4965H8.02359V8.44952ZM17.4867 11.3871C17.3554 11.3876 17.2254 11.414 17.1043 11.4647C16.9831 11.5154 16.8732 11.5895 16.7807 11.6827C16.6882 11.776 16.615 11.8865 16.5652 12.008C16.5154 12.1295 16.49 12.2597 16.4906 12.391C16.4916 12.6549 16.5969 12.9076 16.7834 13.0942C16.97 13.2808 17.2228 13.3861 17.4867 13.3871H27.0025C27.2664 13.3861 27.5191 13.2808 27.7057 13.0942C27.8923 12.9076 27.9976 12.6549 27.9986 12.391C27.9991 12.2597 27.9738 12.1295 27.924 12.008C27.8742 11.8865 27.801 11.776 27.7085 11.6827C27.616 11.5895 27.506 11.5154 27.3849 11.4647C27.2637 11.414 27.1338 11.3876 27.0025 11.3871H17.4867ZM42.9833 18.2232C41.3393 18.2232 39.9871 19.5831 39.9871 21.2271V22.8072C35.3443 24.154 31.9635 28.5123 31.9635 33.3856V40.7548C30.8338 41.3281 30.0572 42.5227 30.0572 43.8819V46.3858C30.0592 46.9358 30.5053 47.3808 31.0553 47.3819H37.7156C38.1306 49.9143 40.3361 51.8644 42.9813 51.8644C45.6266 51.8644 47.8321 49.9144 48.247 47.3819H54.9054C55.4554 47.3808 55.9012 46.9358 55.9034 46.3858V43.8818C55.9034 42.5226 55.1268 41.3281 53.9972 40.7548V33.3855C53.9972 28.5101 50.618 24.1498 45.9736 22.8053V21.2271C45.9736 19.583 44.6272 18.2231 42.9833 18.2231V18.2232ZM7.02553 18.3325C6.89356 18.332 6.76278 18.3577 6.64075 18.4079C6.51872 18.4582 6.40785 18.5321 6.31452 18.6255C6.2212 18.7188 6.14727 18.8297 6.097 18.9517C6.04672 19.0737 6.0211 19.2045 6.02161 19.3365V24.3873C6.0211 24.5193 6.04672 24.6501 6.097 24.7721C6.14727 24.8941 6.2212 25.005 6.31452 25.0983C6.40785 25.1917 6.51872 25.2656 6.64075 25.3159C6.76278 25.3661 6.89356 25.3918 7.02553 25.3913H12.0764C12.2084 25.3918 12.3392 25.3661 12.4612 25.3159C12.5832 25.2656 12.6941 25.1917 12.7874 25.0983C12.8807 25.005 12.9547 24.8941 13.0049 24.7721C13.0552 24.6501 13.0808 24.5193 13.0803 24.3873V19.3365C13.0808 19.2045 13.0552 19.0737 13.0049 18.9517C12.9547 18.8297 12.8807 18.7188 12.7874 18.6255C12.6941 18.5321 12.5832 18.4582 12.4612 18.4079C12.3392 18.3577 12.2084 18.332 12.0764 18.3325H7.02553ZM17.4867 18.4439C17.3554 18.4444 17.2254 18.4708 17.1043 18.5215C16.9831 18.5722 16.8732 18.6463 16.7807 18.7395C16.6882 18.8328 16.615 18.9433 16.5652 19.0648C16.5154 19.1863 16.49 19.3165 16.4906 19.4478C16.4916 19.7117 16.5969 19.9644 16.7834 20.151C16.97 20.3376 17.2228 20.4429 17.4867 20.4439H21.9965C22.1279 20.4444 22.258 20.4191 22.3795 20.3693C22.501 20.3195 22.6116 20.2463 22.7048 20.1538C22.798 20.0613 22.8721 19.9513 22.9228 19.8302C22.9736 19.7091 22.9999 19.5791 23.0005 19.4478C23.001 19.3158 22.9754 19.185 22.9251 19.063C22.8748 18.941 22.8009 18.8301 22.7076 18.7368C22.6142 18.6434 22.5034 18.5695 22.3813 18.5192C22.2593 18.469 22.1285 18.4434 21.9965 18.4439H17.4867ZM42.9833 20.2232C43.5512 20.2232 43.9813 20.6536 43.9813 21.2271V22.4225C43.6526 22.3919 43.32 22.3717 42.9833 22.3717C42.6467 22.3717 42.3158 22.3921 41.9872 22.4225V21.2271C41.9872 20.6536 42.4154 20.2232 42.9833 20.2232ZM8.02359 20.3346H11.0783V23.3893H8.02359V20.3346ZM17.4867 23.2799C17.2228 23.281 16.97 23.3862 16.7834 23.5728C16.5969 23.7594 16.4916 24.0122 16.4906 24.2761C16.49 24.4074 16.5154 24.5375 16.5652 24.659C16.615 24.7806 16.6882 24.8911 16.7807 24.9843C16.8732 25.0775 16.9831 25.1516 17.1043 25.2024C17.2254 25.2531 17.3554 25.2795 17.4867 25.28H27.0025C27.1338 25.2795 27.2637 25.2531 27.3849 25.2024C27.506 25.1516 27.616 25.0775 27.7085 24.9843C27.801 24.8911 27.8742 24.7806 27.924 24.659C27.9738 24.5375 27.9991 24.4074 27.9986 24.2761C27.9976 24.0122 27.8923 23.7594 27.7057 23.5728C27.5191 23.3862 27.2664 23.281 27.0025 23.2799H17.4867ZM42.9833 24.3718C47.9696 24.3718 51.9971 28.6335 51.9971 33.3856V40.3916H33.9636V33.3856C33.9636 28.6335 37.997 24.3718 42.9833 24.3718ZM7.02553 30.993C6.76032 30.992 6.50556 31.0963 6.31729 31.2831C6.12902 31.4699 6.02267 31.7239 6.02161 31.9891V37.0458C6.02188 37.1773 6.04807 37.3075 6.09869 37.4288C6.14931 37.5502 6.22336 37.6603 6.31661 37.753C6.40985 37.8457 6.52046 37.9192 6.64211 37.9691C6.76375 38.019 6.89405 38.0444 7.02553 38.0439H12.0764C12.2079 38.0444 12.3382 38.019 12.4598 37.9691C12.5815 37.9192 12.6921 37.8457 12.7853 37.753C12.8786 37.6603 12.9526 37.5502 13.0033 37.4288C13.0539 37.3075 13.0801 37.1773 13.0803 37.0458V31.9891C13.0793 31.7239 12.9729 31.4699 12.7846 31.2831C12.5964 31.0963 12.3416 30.992 12.0764 30.993H7.02553ZM17.4867 31.1043C17.2228 31.1054 16.97 31.2106 16.7834 31.3972C16.5969 31.5838 16.4916 31.8366 16.4906 32.1004C16.49 32.2318 16.5154 32.3619 16.5652 32.4834C16.615 32.605 16.6882 32.7155 16.7807 32.8087C16.8732 32.9019 16.9831 32.976 17.1043 33.0267C17.2254 33.0775 17.3554 33.1039 17.4867 33.1044H25.0024C25.1338 33.1039 25.2637 33.0775 25.3848 33.0267C25.506 32.976 25.6159 32.9019 25.7084 32.8087C25.8009 32.7155 25.8742 32.605 25.9239 32.4834C25.9737 32.3619 25.9991 32.2318 25.9986 32.1004C25.9975 31.8366 25.8923 31.5838 25.7057 31.3972C25.5191 31.2106 25.2663 31.1054 25.0024 31.1043H17.4867ZM8.02359 32.993H11.0783V36.0419H8.02359V32.993ZM17.4867 35.9325C17.3554 35.9331 17.2254 35.9594 17.1043 36.0102C16.9831 36.0609 16.8732 36.135 16.7807 36.2282C16.6882 36.3214 16.615 36.432 16.5652 36.5535C16.5154 36.675 16.49 36.8051 16.4906 36.9365C16.4916 37.2003 16.5969 37.4531 16.7834 37.6397C16.97 37.8263 17.2228 37.9316 17.4867 37.9326H21.4868C21.6181 37.9331 21.7482 37.9077 21.8697 37.858C21.9913 37.8082 22.1018 37.7349 22.195 37.6424C22.2882 37.5499 22.3623 37.44 22.4131 37.3189C22.4638 37.1977 22.4902 37.0678 22.4907 36.9365C22.4912 36.8045 22.4656 36.6737 22.4153 36.5517C22.365 36.4296 22.2911 36.3188 22.1978 36.2254C22.1045 36.1321 21.9936 36.0582 21.8715 36.0079C21.7495 35.9576 21.6187 35.932 21.4868 35.9325H17.4867ZM33.4401 42.3917H52.5225C53.2816 42.3917 53.9015 43.011 53.9015 43.8819V45.3819H32.0592V43.8819C32.0592 43.011 32.681 42.3917 33.4401 42.3917ZM7.02553 42.503C6.89356 42.5025 6.76278 42.5281 6.64075 42.5784C6.51872 42.6287 6.40785 42.7026 6.31452 42.7959C6.2212 42.8892 6.14727 43.0001 6.097 43.1221C6.04672 43.2442 6.0211 43.3749 6.02161 43.5069V48.5558C6.0211 48.6878 6.04672 48.8186 6.097 48.9406C6.14727 49.0627 6.2212 49.1735 6.31452 49.2668C6.40785 49.3602 6.51872 49.4341 6.64075 49.4844C6.76278 49.5346 6.89356 49.5603 7.02553 49.5598H12.0764C12.2084 49.5603 12.3392 49.5346 12.4612 49.4844C12.5832 49.4341 12.6941 49.3602 12.7874 49.2668C12.8807 49.1735 12.9547 49.0627 13.0049 48.9406C13.0552 48.8186 13.0808 48.6878 13.0803 48.5558V43.5069C13.0808 43.3749 13.0552 43.2442 13.0049 43.1221C12.9547 43.0001 12.8807 42.8892 12.7874 42.7959C12.6941 42.7026 12.5832 42.6287 12.4612 42.5784C12.3392 42.5281 12.2084 42.5025 12.0764 42.503H7.02553ZM17.4867 42.6124C17.3554 42.6129 17.2254 42.6392 17.1043 42.69C16.9831 42.7407 16.8732 42.8148 16.7807 42.908C16.6882 43.0012 16.615 43.1118 16.5652 43.2333C16.5154 43.3548 16.49 43.485 16.4906 43.6163C16.4916 43.8802 16.5969 44.1329 16.7834 44.3195C16.97 44.5061 17.2228 44.6114 17.4867 44.6124H25.0024C25.2663 44.6114 25.5191 44.5061 25.7057 44.3195C25.8923 44.1329 25.9976 43.8801 25.9986 43.6162C25.9991 43.4849 25.9737 43.3547 25.9239 43.2332C25.8742 43.1117 25.8009 43.0012 25.7084 42.9079C25.6159 42.8147 25.506 42.7406 25.3848 42.6899C25.2637 42.6392 25.1338 42.6128 25.0024 42.6123L17.4867 42.6124ZM8.02359 44.503H11.0783V47.5578H8.02359V44.503ZM39.8113 47.3839H46.1513C45.7679 48.8075 44.5328 49.8644 42.9813 49.8645C41.4299 49.8644 40.1947 48.8075 39.8113 47.3839ZM17.4867 47.4484C17.2228 47.4494 16.97 47.5547 16.7834 47.7413C16.5969 47.9279 16.4916 48.1806 16.4906 48.4445C16.49 48.5758 16.5154 48.706 16.5652 48.8275C16.615 48.949 16.6882 49.0596 16.7807 49.1528C16.8732 49.246 16.9831 49.3201 17.1043 49.3708C17.2254 49.4216 17.3554 49.4479 17.4867 49.4484H21.4868C21.6187 49.4489 21.7495 49.4233 21.8715 49.3731C21.9936 49.3228 22.1045 49.2489 22.1978 49.1555C22.2911 49.0622 22.365 48.9513 22.4153 48.8293C22.4656 48.7073 22.4912 48.5765 22.4907 48.4445C22.4902 48.3132 22.4638 48.1832 22.4131 48.0621C22.3623 47.941 22.2882 47.831 22.195 47.7385C22.1018 47.646 21.9913 47.5728 21.8697 47.523C21.7482 47.4732 21.6181 47.4479 21.4868 47.4484H17.4867Z" fill="#424241"/>
</svg>
