<svg width="56" height="49" viewBox="0 0 56 49" fill="none" xmlns="http://www.w3.org/2000/svg">
<path d="M10.7223 11.7755H17.1982C18.9944 11.7755 20.4404 13.2216 20.4404 15.0177V27.9865C20.4404 29.7827 18.9944 31.2287 17.1982 31.2287H10.7223C8.92615 31.2287 7.48013 29.7827 7.48013 27.9865V15.0177C7.48013 13.2216 8.92615 11.7755 10.7223 11.7755Z" fill="#7EDAD2"/>
<path opacity="0.99" d="M51.7537 0.997772C53.5528 0.997772 55.0011 2.44607 55.0011 4.24507V38.6376C55.0011 40.4366 53.5528 41.8849 51.7537 41.8849C49.9547 41.8849 48.5064 40.4366 48.5064 38.6376V4.24507C48.5064 2.44607 49.9547 0.997772 51.7537 0.997772Z" fill="#7EDAD2"/>
<path d="M51.7569 0C49.4799 0 47.621 1.81727 47.5283 4.07235C42.0596 6.80208 32.6384 11.9893 21.2035 13.6721C20.6351 11.9977 19.0624 10.7776 17.2015 10.7776H10.7268C8.59054 10.7776 6.82653 12.3811 6.54115 14.4417C2.76767 14.453 3.7796e-06 17.6822 0 21.5043C3.7796e-06 25.3319 2.75344 28.5589 6.54115 28.5611C6.82738 30.6216 8.59121 32.2291 10.7268 32.2291H17.2015C17.4222 32.2291 17.6385 32.2076 17.85 32.1745L21.0414 43.3895C21.4254 44.7382 20.6696 46.0954 19.3207 46.4794C17.9721 46.8634 16.6148 46.1075 16.2308 44.7587L13.3342 34.5807C13.1828 34.0504 12.6305 33.7428 12.0998 33.8932C11.5677 34.0438 11.2588 34.5977 11.4104 35.1296L14.3089 45.3056C14.9868 47.6865 17.4864 49.0793 19.8676 48.4013C22.2485 47.7235 23.6413 45.2238 22.9633 42.8426L21.6079 38.0789C23.0249 37.7797 24.1422 37.299 24.981 36.6511C26.0349 35.8371 26.6303 34.7721 26.8755 33.7253C27.1537 32.5376 27.0265 31.4109 26.7954 30.4557C35.7029 32.6986 42.9953 36.6674 47.5419 38.9363C47.699 41.1314 49.5234 42.8817 51.7569 42.8817C54.0926 42.8817 56.0011 40.9732 56.0011 38.6375V16.4398C55.9991 15.8905 55.5542 15.4458 55.005 15.4437C54.4519 15.4407 54.0013 15.8867 53.9991 16.4398V38.6375C53.9991 39.8998 53.0192 40.8817 51.7569 40.8817C50.4946 40.8817 49.5127 39.8998 49.5127 38.6375V4.24424C49.5127 2.98193 50.4946 1.99224 51.7569 1.99224C53.0192 1.99224 53.9991 2.98193 53.9991 4.24424V12.4378C53.9961 12.9946 54.4481 13.4469 55.005 13.4436C55.5581 13.4416 56.0043 12.9908 56.0011 12.4378V4.24424C56.0011 1.90851 54.0926 7.20902e-06 51.7569 7.20902e-06L51.7569 0ZM47.5088 6.28332V36.7175C42.0315 33.9485 32.8814 29.0759 21.4457 27.3951V15.6058C32.8814 13.925 42.0315 9.05233 47.5088 6.28332ZM10.7268 12.7717H17.2015C18.4476 12.7717 19.4211 13.7367 19.4418 14.9769V28.024C19.4214 29.2642 18.4476 30.2291 17.2015 30.2291H10.7268C9.46731 30.2291 8.48259 29.2444 8.48259 27.9849V15.0159C8.48259 13.7565 9.46731 12.7717 10.7268 12.7717ZM6.48255 16.43V26.5591C3.90738 26.5338 2.00004 24.3534 2.00004 21.5043C2.00004 18.6414 3.89499 16.4345 6.48255 16.43ZM21.1977 29.3482C22.3211 29.5136 23.4302 29.7047 24.5161 29.9342C24.8427 30.8164 25.1974 32.1193 24.9282 33.2682C24.7716 33.9366 24.4517 34.5315 23.7583 35.0671C23.1978 35.5 22.2632 35.8561 21.0473 36.1062C20.5983 34.5355 20.1508 32.9644 19.7035 31.3932C20.3872 30.8826 20.9142 30.1715 21.1977 29.3482Z" fill="#424241"/>
<path d="M10.9997 20.4999C10.8677 20.4994 10.7369 20.525 10.6149 20.5753C10.4928 20.6255 10.382 20.6995 10.2886 20.7928C10.1953 20.8861 10.1214 20.997 10.0711 21.119C10.0208 21.2411 9.99523 21.3719 9.99575 21.5039C9.9962 21.6352 10.0225 21.7652 10.0732 21.8864C10.1239 22.0076 10.198 22.1176 10.2913 22.2101C10.3845 22.3027 10.495 22.376 10.6166 22.4258C10.7382 22.4756 10.8683 22.5009 10.9997 22.5004H16.9644C17.0958 22.5009 17.2259 22.4756 17.3475 22.4258C17.469 22.376 17.5796 22.3027 17.6728 22.2101C17.7661 22.1176 17.8402 22.0076 17.8909 21.8864C17.9416 21.7652 17.9679 21.6352 17.9683 21.5039C17.9689 21.3719 17.9433 21.2411 17.893 21.119C17.8427 20.997 17.7688 20.8861 17.6755 20.7928C17.5821 20.6995 17.4712 20.6255 17.3492 20.5753C17.2272 20.525 17.0964 20.4994 16.9644 20.4999H10.9997ZM10.9776 15.4801C10.8462 15.4796 10.716 15.505 10.5944 15.5548C10.4729 15.6046 10.3623 15.6778 10.2691 15.7704C10.1759 15.8629 10.1018 15.973 10.0511 16.0941C10.0004 16.2153 9.97405 16.3453 9.97359 16.4767C9.97307 16.6087 9.99869 16.7395 10.049 16.8615C10.0992 16.9835 10.1732 17.0944 10.2665 17.1877C10.3598 17.2811 10.4707 17.355 10.5927 17.4053C10.7148 17.4555 10.8456 17.4812 10.9776 17.4806H16.9496C17.081 17.4802 17.211 17.4539 17.3322 17.4032C17.4534 17.3524 17.5634 17.2784 17.6559 17.1851C17.7485 17.0919 17.8217 16.9813 17.8715 16.8598C17.9213 16.7382 17.9467 16.6081 17.9462 16.4767C17.9453 16.2127 17.84 15.9597 17.6533 15.773C17.4666 15.5863 17.2136 15.481 16.9496 15.4801H10.9776ZM10.9776 25.5271C10.8462 25.5265 10.716 25.5519 10.5944 25.6017C10.4729 25.6515 10.3623 25.7248 10.2691 25.8173C10.1759 25.9099 10.1018 26.0199 10.0511 26.1411C10.0004 26.2623 9.97405 26.3923 9.97359 26.5236C9.97307 26.6556 9.99869 26.7864 10.049 26.9084C10.0992 27.0305 10.1732 27.1414 10.2665 27.2347C10.3598 27.328 10.4707 27.402 10.5927 27.4522C10.7148 27.5025 10.8456 27.5281 10.9776 27.5276H16.9496C17.081 27.5271 17.211 27.5008 17.3322 27.4501C17.4534 27.3994 17.5634 27.3253 17.6559 27.2321C17.7485 27.1388 17.8217 27.0283 17.8715 26.9067C17.9213 26.7852 17.9467 26.655 17.9462 26.5236C17.9453 26.2596 17.84 26.0066 17.6533 25.8199C17.4666 25.6333 17.2136 25.528 16.9496 25.5271H10.9776Z" fill="#424241"/>
</svg>
