<svg width="57" height="56" viewBox="0 0 57 56" fill="none" xmlns="http://www.w3.org/2000/svg">
<path opacity="0.99" d="M11.6183 33.5041C11.0441 32.9299 10.1202 32.9299 9.54605 33.5041L7.04083 36.0095L19.7897 48.7589L22.2949 46.2536C22.8691 45.6794 22.8691 44.7554 22.2949 44.1812L11.6183 33.5041Z" fill="#7EDAD2"/>
<path opacity="0.99" d="M6.36854 35.3371L1.52684 40.1541C0.835455 40.8419 0.835452 41.9482 1.52684 42.636L13.3073 54.3561C13.9988 55.0439 15.1115 55.0439 15.8029 54.3561L20.6072 49.5765L6.36854 35.3371Z" fill="#7EDAD2"/>
<path opacity="0.99" d="M31.305 6.97202H40.909C41.8893 6.97202 42.6785 7.76124 42.6785 8.74157C42.6785 9.7219 41.8893 10.5111 40.909 10.5111H31.305C30.3247 10.5111 29.5354 9.7219 29.5354 8.74157C29.5354 7.76124 30.3247 6.97202 31.305 6.97202Z" fill="#7EDAD2"/>
<path d="M29.1068 0.996674L32.0952 6.9714H40.1188L43.1071 0.996674H29.1068Z" fill="#7EDAD2"/>
<path opacity="0.99" d="M29.0913 7.92992e-05C28.3487 0.00157602 27.8667 0.783172 28.1987 1.44737L30.521 6.0959C29.3734 6.43489 28.5151 7.49181 28.5151 8.74049C28.5151 9.29979 28.6879 9.82239 28.98 10.26C25.367 13.2845 22.5493 18.6934 21.9525 25.8521C21.9087 26.4022 22.3186 26.8837 22.8685 26.9283C23.4158 26.9735 23.897 26.5689 23.9467 26.0221C24.5346 18.9689 27.4561 13.9754 30.7456 11.4866C34.3013 11.5387 37.8937 11.4864 41.4668 11.4953C44.3814 13.7467 47.0194 18.291 47.9593 23.9399C48.0518 24.4839 48.5675 24.8502 49.1117 24.7583C49.658 24.6695 50.0283 24.1539 49.9379 23.6079C48.9793 17.8469 46.439 13.0288 43.1995 10.26C43.4915 9.82231 43.6643 9.29972 43.6643 8.74041C43.6643 7.49174 42.806 6.43482 41.6584 6.09583L43.9807 1.4473C44.3127 0.783104 43.8307 0.0014816 43.0881 0L29.0913 7.92992e-05ZM30.7085 1.9923H41.4704L39.486 5.9709H32.6929L30.7085 1.9923ZM31.2463 7.95593L40.8884 7.97294C41.332 7.97372 41.6638 8.29693 41.6638 8.74053C41.6638 9.13925 41.3877 9.4276 41.0115 9.48469L31.2398 9.50397C30.7537 9.50397 30.5128 9.13289 30.5128 8.72032C30.5294 8.2967 30.8182 7.95611 31.2463 7.95611V7.95593ZM35.0934 15.1039V15.7777C34.8904 15.8471 34.6896 15.9297 34.5016 16.0414C33.6446 16.5501 33.0857 17.4264 32.9898 18.4184C32.8939 19.4104 33.2761 20.3857 34.023 21.0454C34.559 21.5188 35.1736 21.7375 35.9275 22.0094C36.83 22.3601 37.2011 22.727 37.1969 23.3482C37.2101 23.6753 36.9343 24.0291 36.65 24.1978C36.3657 24.3666 35.9398 24.4001 35.6383 24.2721C35.3367 24.144 35.0705 23.8211 34.9977 23.5045C34.8755 22.9655 34.3392 22.6278 33.8004 22.7505C33.2622 22.8736 32.9256 23.4096 33.0484 23.9478C33.272 24.919 33.9397 25.7205 34.857 26.11C34.9337 26.1425 35.0151 26.1522 35.0934 26.1784V26.8561C35.0914 27.4084 35.5372 27.8579 36.0895 27.86C36.6418 27.8578 37.0878 27.4084 37.0856 26.8561V26.1803C37.2885 26.1109 37.4893 26.0302 37.6774 25.9186C38.5344 25.4098 39.0933 24.5335 39.1892 23.5416C39.285 22.5496 38.9029 21.5801 38.1559 20.9204C37.8693 20.6672 37.4688 20.4439 36.6633 20.1522C35.8579 19.8604 35.5432 19.7169 35.3512 19.5473C35.107 19.3316 34.9507 18.9343 34.982 18.6098C35.0134 18.2852 35.2447 17.9289 35.5289 17.7602C35.8132 17.5914 36.2392 17.5657 36.5407 17.6938C36.8422 17.8218 37.1084 18.1447 37.1813 18.4613C37.3071 18.9971 37.8422 19.3306 38.3786 19.2075C38.9158 19.0843 39.2521 18.5497 39.1306 18.0121C38.907 17.0409 38.2393 16.2375 37.3219 15.848C37.2453 15.8155 37.1639 15.8058 37.0856 15.7796V15.1038C37.0846 14.5538 36.6395 14.1079 36.0895 14.108C35.5395 14.108 35.0944 14.5539 35.0934 15.1039L35.0934 15.1039ZM51.5917 25.0533L43.2791 31.4304C42.6721 30.3954 41.558 29.6891 40.2751 29.6979L32.2652 29.7487C30.5215 29.7704 27.5819 28.3251 24.0189 28.1256C20.6512 27.9371 16.7263 28.8667 12.716 33.2097L12.3039 32.7976C11.1797 31.6735 9.75089 31.8661 8.81942 32.7976L7.01468 34.6023C6.57041 34.1913 6.03621 34.239 5.64552 34.6296L0.803622 39.4422C-0.267868 40.5081 -0.26788 42.2807 0.803622 43.3466L12.5851 55.0617C13.6568 56.1278 15.4178 56.1278 16.4895 55.0617L21.2962 50.2862C21.8463 49.7361 21.6211 49.1931 21.1849 48.7569L22.9857 46.9561C23.881 46.0607 23.9243 44.6216 23.138 43.6591C23.7634 42.9291 25.1418 41.7471 27.5698 41.8114C31.9842 41.9284 35.4912 42.1602 38.3043 42.0399C41.1175 41.9198 43.3465 41.4377 44.8963 39.8915C49.461 35.3372 55.0176 29.8151 55.0176 29.8151C55.8028 29.0267 55.9677 28.6475 56.1202 28.0776C56.3164 27.4011 56.2065 26.591 55.7618 25.9029C55.3219 25.2224 54.6171 24.7484 53.8574 24.5748C53.041 24.3583 52.2674 24.5615 51.5917 25.0533L51.5917 25.0533ZM54.0529 28.0808C54.0529 28.0808 48.0353 33.9288 43.4782 38.4754C42.4687 39.4827 40.8427 39.9355 38.2164 40.0477C35.5901 40.16 32.0787 39.9295 27.6224 39.8114C24.66 39.7329 22.7454 41.2188 21.7669 42.2548L14.1437 34.6355C21.7126 26.3067 27.1362 31.815 32.2886 31.7507L40.2907 31.698C41.1254 31.6922 41.7653 32.3371 41.7653 33.1746C41.7653 34.012 41.1259 34.659 40.2829 34.659H30.1459C29.5936 34.6612 29.1477 35.1106 29.1498 35.6629C29.1518 36.2121 29.5967 36.6569 30.1459 36.659H40.2829C42.0472 36.659 43.5029 35.3195 43.7224 33.6121L52.8104 26.6412C53.2381 26.3174 53.7333 26.5184 54.0229 26.8633C54.3125 27.2082 54.4001 27.7337 54.0527 28.0808H54.0529ZM10.8937 34.2078L21.5697 44.8896C21.7645 45.0845 21.7645 45.351 21.5697 45.5459L19.7747 47.3487L8.43659 36.0086L10.2374 34.2078C10.4915 33.9537 10.7913 34.1054 10.8937 34.2078ZM6.34669 36.7469L19.1598 49.5886L15.0793 53.6457C14.7682 53.9551 14.3064 53.9551 13.9953 53.6457L2.21381 41.9286C1.90252 41.619 1.90252 41.168 2.21381 40.8583L6.34669 36.7469ZM14.1047 49.4893C13.7622 49.9639 13.8699 50.6262 14.3449 50.9679C14.8191 51.3089 15.4799 51.2014 15.8215 50.7276C16.163 50.254 16.0564 49.5932 15.5832 49.251C15.0417 48.9046 14.4604 49.013 14.1047 49.4893L14.1047 49.4893Z" fill="#424241"/>
</svg>
