<svg width="56" height="57" viewBox="0 0 56 57" fill="none" xmlns="http://www.w3.org/2000/svg">
<path d="M30.8302 52.4548C30.8302 52.8272 30.7569 53.1959 30.6144 53.5399C30.4719 53.8839 30.263 54.1965 29.9997 54.4598C29.7364 54.7231 29.4238 54.932 29.0798 55.0745C28.7358 55.217 28.3671 55.2903 27.9947 55.2903C27.2427 55.2903 26.5214 54.9916 25.9897 54.4598C25.4579 53.9281 25.1591 53.2068 25.1591 52.4548C25.1591 51.7027 25.4579 50.9815 25.9897 50.4497C26.5214 49.918 27.2427 49.6192 27.9947 49.6192C28.3671 49.6192 28.7358 49.6926 29.0798 49.8351C29.4238 49.9776 29.7364 50.1864 29.9997 50.4497C30.263 50.713 30.4719 51.0256 30.6144 51.3697C30.7569 51.7137 30.8302 52.0824 30.8302 52.4548ZM34.9118 42.9996L40.5272 54.033C41.0298 55.0205 42.2292 55.4107 43.2167 54.908C44.2041 54.4054 44.5944 53.204 44.0917 52.2166L39.4002 42.9996L34.9118 42.9996ZM16.599 42.9996L11.9075 52.2166C11.4048 53.204 11.795 54.4054 12.7825 54.908C13.7699 55.4107 14.9693 55.0204 15.472 54.033L21.0873 42.9996H16.599Z" fill="#7EDAD2"/>
<path d="M2.99906 0.998779H53C54.1081 0.998779 55.0001 1.8908 55.0001 2.99882C55.0001 4.10684 54.1081 4.99886 53 4.99886H2.99906C1.89104 4.99886 0.999023 4.10684 0.999023 2.99882C0.999023 1.8908 1.89104 0.998779 2.99906 0.998779Z" fill="#7EDAD2"/>
<path d="M23.3995 26.7266H26.9995V37.0904H23.3995V26.7266ZM16.1993 28.7266H19.7994V37.0904H16.1993V28.7266ZM8.99921 30.7266H12.5993V37.0904H8.99921V30.7266Z" fill="#7EDAD2"/>
<path d="M2.99615 7.83744e-06C1.35142 7.83744e-06 7.6587e-06 1.35143 7.6587e-06 2.99616C7.6587e-06 4.6409 1.35142 6.00013 2.99615 6.00013V18.9984C2.99615 19.5507 3.44388 19.9984 3.99617 19.9984C4.54846 19.9984 4.99619 19.5507 4.99619 18.9984V6.00013H50.9971V41.995H4.99619V22.9985C4.99619 22.4462 4.54846 21.9985 3.99617 21.9985C3.44388 21.9985 2.99615 22.4462 2.99615 22.9985V41.995H0.996121C0.864797 41.9955 0.734858 42.0219 0.613726 42.0726C0.492594 42.1233 0.382639 42.1974 0.290142 42.2906C0.197644 42.3839 0.124417 42.4944 0.0746354 42.6159C0.0248542 42.7374 -0.000506317 42.8676 7.6587e-06 42.9989C0.00103736 43.2628 0.106312 43.5155 0.292896 43.7021C0.47948 43.8887 0.732253 43.994 0.996121 43.995H15.0159L11.0139 51.7627C10.2675 53.2289 10.8599 55.0514 12.3264 55.798C13.7921 56.5441 15.6136 55.9511 16.3597 54.4855L21.6996 43.995H26.9947V49.2588C25.599 49.695 24.5669 50.992 24.5669 52.5225C24.5669 54.4042 26.1189 55.9484 28.0006 55.9484C29.8822 55.9484 31.4244 54.4042 31.4244 52.5225C31.4244 50.9898 30.3935 49.6912 28.9967 49.2568V43.995H34.2937L39.6336 54.4855C40.3797 55.9511 42.2012 56.5441 43.6669 55.798C45.1334 55.0514 45.7258 53.2289 44.9794 51.7627L40.8368 43.995H54.9952C55.1266 43.9955 55.2567 43.9702 55.3782 43.9204C55.4997 43.8706 55.6103 43.7974 55.7035 43.7049C55.7967 43.6124 55.8708 43.5024 55.9215 43.3813C55.9723 43.2602 55.9986 43.1302 55.9991 42.9989C55.9997 42.8669 55.9741 42.7361 55.9238 42.6141C55.8735 42.4921 55.7996 42.3812 55.7063 42.2879C55.6129 42.1945 55.5021 42.1206 55.38 42.0703C55.258 42.0201 55.1272 41.9945 54.9952 41.995H52.9971V6.00013C54.641 5.99903 55.9991 4.64023 55.9991 2.99616C55.9991 1.35143 54.6399 7.83744e-06 52.9952 7.83744e-06H44.7646C44.2123 -0.0021522 43.7628 0.443823 43.7606 0.996121C43.7586 1.55147 44.2092 2.00222 44.7646 2.00005H52.9952C53.5665 2.00005 53.9991 2.42485 53.9991 2.99616C53.9991 3.56747 53.5665 4.00009 52.9952 4.00009H2.99615C2.42485 4.00009 1.99222 3.56747 1.99222 2.99616C1.99222 2.42485 2.42485 2.00005 2.99615 2.00005H40.7625C41.3179 2.00223 41.7686 1.55147 41.7665 0.996121C41.7645 0.443823 41.3149 -0.00215553 40.7625 7.83744e-06H2.99615ZM40.9989 9.90645C37.1446 9.90645 33.9929 13.0504 33.9929 16.9046C33.9929 20.7589 37.1446 23.9087 40.9989 23.9087C44.8531 23.9087 47.997 20.7589 47.997 16.9046C47.997 13.0504 44.8531 9.90645 40.9989 9.90645ZM8.99627 10.9729C8.72439 10.9731 8.46371 11.0812 8.27146 11.2735C8.07921 11.4657 7.9711 11.7264 7.97086 11.9983C7.9711 12.2702 8.07921 12.5309 8.27146 12.7231C8.46371 12.9154 8.72439 13.0235 8.99627 13.0237C9.26816 13.0235 9.52883 12.9154 9.72108 12.7231C9.91333 12.5309 10.0214 12.2702 10.0217 11.9983C10.0214 11.7264 9.91333 11.4657 9.72108 11.2735C9.52883 11.0812 9.26816 10.9731 8.99627 10.9729ZM13.0003 10.9983C12.8688 10.9975 12.7384 11.0227 12.6167 11.0723C12.4949 11.122 12.3842 11.1952 12.2907 11.2877C12.1973 11.3802 12.123 11.4903 12.0722 11.6115C12.0213 11.7328 11.9949 11.8629 11.9944 11.9944C11.9939 12.1265 12.0195 12.2575 12.0699 12.3796C12.1203 12.5018 12.1944 12.6128 12.288 12.7061C12.3815 12.7995 12.4926 12.8734 12.6149 12.9235C12.7371 12.9737 12.8681 12.9991 13.0003 12.9983H30.9967C31.128 12.9978 31.258 12.9714 31.3791 12.9207C31.5002 12.87 31.6102 12.7959 31.7027 12.7027C31.7952 12.6094 31.8684 12.4989 31.9182 12.3774C31.968 12.2559 31.9933 12.1257 31.9928 11.9944C31.9918 11.7305 31.8865 11.4777 31.6999 11.2912C31.5133 11.1046 31.2606 10.9993 30.9967 10.9983L13.0003 10.9983ZM39.9949 12.0061V16.6019L37.448 20.434C36.5498 19.5303 35.9949 18.2858 35.9949 16.9046C35.9949 14.4752 37.706 12.4668 39.9949 12.0061ZM41.995 12.0061C43.9642 12.3995 45.5032 13.9376 45.8974 15.9066H41.995V12.0061ZM8.99627 15.973C8.72439 15.9732 8.46371 16.0813 8.27146 16.2736C8.07921 16.4658 7.9711 16.7265 7.97086 16.9984C7.9711 17.2703 8.07921 17.531 8.27146 17.7232C8.46371 17.9155 8.72439 18.0236 8.99627 18.0238C9.26816 18.0236 9.52883 17.9155 9.72108 17.7232C9.91333 17.531 10.0214 17.2703 10.0217 16.9984C10.0214 16.7265 9.91333 16.4658 9.72108 16.2736C9.52883 16.0813 9.26816 15.9732 8.99627 15.973ZM13.0003 15.9964C12.8681 15.9956 12.7371 16.0211 12.6149 16.0712C12.4926 16.1214 12.3815 16.1953 12.288 16.2886C12.1944 16.382 12.1203 16.4929 12.0699 16.6151C12.0195 16.7373 11.9939 16.8682 11.9944 17.0003C11.9949 17.1318 12.0213 17.2619 12.0722 17.3832C12.123 17.5045 12.1973 17.6145 12.2907 17.707C12.3842 17.7995 12.4949 17.8727 12.6167 17.9224C12.7384 17.9721 12.8688 17.9972 13.0003 17.9965H22.9946C23.1259 17.997 23.2561 17.9716 23.3776 17.9218C23.4991 17.872 23.6096 17.7988 23.7029 17.7063C23.7961 17.6138 23.8702 17.5039 23.9209 17.3827C23.9716 17.2616 23.998 17.1317 23.9985 17.0003C23.999 16.8684 23.9734 16.7376 23.9232 16.6156C23.8729 16.4935 23.799 16.3826 23.7056 16.2893C23.6123 16.196 23.5014 16.1221 23.3794 16.0718C23.2574 16.0215 23.1266 15.9959 22.9946 15.9964L13.0003 15.9964ZM41.5321 17.9086H45.8954C45.4339 20.1965 43.4275 21.9086 40.9989 21.9086C40.3293 21.9086 39.6948 21.772 39.1121 21.5356L41.5321 17.9086ZM8.99627 20.9731C8.72439 20.9733 8.46371 21.0814 8.27146 21.2737C8.07921 21.4659 7.9711 21.7266 7.97086 21.9985C7.9711 22.2704 8.07921 22.5311 8.27146 22.7233C8.46371 22.9156 8.72439 23.0237 8.99627 23.0239C9.26816 23.0237 9.52883 22.9156 9.72108 22.7233C9.91333 22.5311 10.0214 22.2704 10.0217 21.9985C10.0214 21.7266 9.91333 21.4659 9.72108 21.2737C9.52883 21.0814 9.26816 20.9733 8.99627 20.9731ZM13.0003 21.0004C12.8688 20.9996 12.7384 21.0248 12.6167 21.0745C12.4949 21.1241 12.3842 21.1973 12.2907 21.2898C12.1973 21.3824 12.123 21.4924 12.0722 21.6137C12.0213 21.7349 11.9949 21.865 11.9944 21.9965C11.9936 22.1288 12.0191 22.26 12.0694 22.3824C12.1196 22.5048 12.1937 22.616 12.2873 22.7095C12.3808 22.8031 12.492 22.8771 12.6144 22.9274C12.7368 22.9777 12.868 23.0032 13.0003 23.0024H30.9967C31.1282 23.0019 31.2583 22.9754 31.3796 22.9246C31.5008 22.8737 31.6108 22.7995 31.7034 22.7061C31.7959 22.6126 31.8691 22.5019 31.9187 22.3801C31.9684 22.2584 31.9936 22.128 31.9928 21.9965C31.9918 21.7327 31.8865 21.4799 31.6999 21.2933C31.5133 21.1067 31.2606 21.0015 30.9967 21.0004L13.0003 21.0004ZM23.393 25.7251C23.1278 25.7262 22.8739 25.8325 22.6871 26.0208C22.5003 26.2091 22.3959 26.4638 22.3969 26.729V37.0867C22.3959 37.3519 22.5003 37.6066 22.6871 37.7949C22.8739 37.9832 23.1278 38.0895 23.393 38.0906H26.9947C27.1268 38.0914 27.2578 38.0659 27.3801 38.0158C27.5023 37.9656 27.6134 37.8917 27.7069 37.7984C27.8005 37.705 27.8746 37.5941 27.925 37.4719C27.9754 37.3497 28.0011 37.2188 28.0006 37.0867V26.729C28.0011 26.5969 27.9754 26.466 27.925 26.3438C27.8746 26.2217 27.8005 26.1107 27.7069 26.0173C27.6134 25.924 27.5023 25.8501 27.3801 25.8C27.2578 25.7498 27.1268 25.7244 26.9947 25.7251L23.393 25.7251ZM32.9967 25.9732C32.7249 25.9734 32.4642 26.0815 32.2719 26.2738C32.0797 26.466 31.9716 26.7267 31.9713 26.9986C31.9716 27.2705 32.0797 27.5311 32.2719 27.7234C32.4642 27.9156 32.7249 28.0238 32.9967 28.024C33.2686 28.0238 33.5293 27.9156 33.7216 27.7234C33.9138 27.5311 34.0219 27.2705 34.0222 26.9986C34.0219 26.7267 33.9138 26.466 33.7216 26.2738C33.5293 26.0815 33.2686 25.9734 32.9967 25.9732ZM36.9988 25.9986C36.8675 25.998 36.7373 26.0234 36.6158 26.0732C36.4943 26.123 36.3837 26.1962 36.2905 26.2887C36.1973 26.3812 36.1232 26.4911 36.0725 26.6123C36.0217 26.7334 35.9954 26.8633 35.9949 26.9947C35.9943 27.1267 36.0199 27.2574 36.0702 27.3795C36.1205 27.5015 36.1944 27.6124 36.2877 27.7057C36.3811 27.799 36.4919 27.873 36.614 27.9232C36.736 27.9735 36.8668 27.9991 36.9988 27.9986H40.9989C41.1302 27.9981 41.2601 27.9717 41.3812 27.921C41.5024 27.8703 41.6123 27.7962 41.7048 27.7029C41.7973 27.6097 41.8706 27.4992 41.9203 27.3777C41.9701 27.2561 41.9955 27.126 41.995 26.9947C41.9939 26.7308 41.8887 26.478 41.7021 26.2915C41.5155 26.1049 41.2627 25.9996 40.9989 25.9986L36.9988 25.9986ZM16.1956 27.7252C15.9314 27.7262 15.6784 27.8318 15.4918 28.0188C15.3051 28.2058 15.2001 28.459 15.1995 28.7232V37.0867C15.1985 37.3519 15.3029 37.6067 15.4897 37.7949C15.6765 37.9832 15.9304 38.0895 16.1956 38.0906H19.7973C19.9288 38.0903 20.0589 38.0641 20.1802 38.0135C20.3016 37.9629 20.4118 37.8889 20.5045 37.7956C20.5972 37.7024 20.6706 37.5918 20.7205 37.4701C20.7704 37.3485 20.7958 37.2182 20.7953 37.0867V28.7232C20.7948 28.4587 20.6895 28.2051 20.5024 28.0181C20.3154 27.831 20.0618 27.7257 19.7973 27.7252H16.1956ZM24.397 27.7252H25.9986V36.0906H24.397V27.7252ZM8.99822 29.7272C8.733 29.7261 8.47826 29.8305 8.28999 30.0173C8.10172 30.2041 7.99537 30.4581 7.9943 30.7233V37.0867C7.9938 37.2187 8.01942 37.3494 8.0697 37.4715C8.11997 37.5935 8.1939 37.7044 8.28722 37.7977C8.38054 37.891 8.49142 37.9649 8.61344 38.0152C8.73547 38.0655 8.86624 38.0911 8.99822 38.0906H12.594C12.726 38.0911 12.8568 38.0655 12.9788 38.0152C13.1008 37.9649 13.2117 37.891 13.305 37.7977C13.3983 37.7044 13.4723 37.5935 13.5225 37.4715C13.5728 37.3494 13.5984 37.2187 13.5979 37.0867V30.7233C13.5969 30.4581 13.4905 30.2041 13.3022 30.0173C13.114 29.8305 12.8592 29.7261 12.594 29.7272H8.99822ZM17.1996 29.7272H18.7933V36.0906H17.1996V29.7272ZM32.9967 30.9733C32.7249 30.9735 32.4642 31.0816 32.2719 31.2739C32.0797 31.4661 31.9716 31.7268 31.9713 31.9987C31.9716 32.2706 32.0797 32.5312 32.2719 32.7235C32.4642 32.9158 32.7249 33.0239 32.9967 33.0241C33.2686 33.0239 33.5293 32.9158 33.7216 32.7235C33.9138 32.5312 34.0219 32.2706 34.0222 31.9987C34.0219 31.7268 33.9138 31.4661 33.7216 31.2739C33.5293 31.0816 33.2686 30.9735 32.9967 30.9733ZM36.9988 30.9967C36.8668 30.9962 36.736 31.0218 36.614 31.0721C36.4919 31.1223 36.3811 31.1963 36.2877 31.2896C36.1944 31.3829 36.1205 31.4938 36.0702 31.6158C36.02 31.7379 35.9943 31.8687 35.9949 32.0006C35.9954 32.132 36.0217 32.2619 36.0725 32.383C36.1232 32.5042 36.1973 32.6141 36.2905 32.7066C36.3837 32.7991 36.4943 32.8723 36.6158 32.9221C36.7373 32.9719 36.8675 32.9973 36.9988 32.9968H46.9931C47.1244 32.9973 47.2546 32.9719 47.3761 32.9221C47.4976 32.8724 47.6082 32.7991 47.7014 32.7066C47.7946 32.6141 47.8687 32.5042 47.9194 32.383C47.9701 32.2619 47.9965 32.132 47.997 32.0006C47.9976 31.8687 47.9719 31.7379 47.9217 31.6158C47.8714 31.4938 47.7975 31.3829 47.7041 31.2896C47.6108 31.1963 47.4999 31.1224 47.3779 31.0721C47.2559 31.0218 47.1251 30.9962 46.9931 30.9967L36.9988 30.9967ZM9.99435 31.7272H11.5959V36.0906H9.99435V31.7272ZM32.9967 35.9734C32.7249 35.9736 32.4642 36.0817 32.2719 36.274C32.0797 36.4662 31.9716 36.7269 31.9713 36.9988C31.9716 37.2707 32.0797 37.5313 32.2719 37.7236C32.4642 37.9158 32.7249 38.024 32.9967 38.0242C33.2686 38.024 33.5293 37.9158 33.7216 37.7236C33.9138 37.5313 34.0219 37.2707 34.0222 36.9988C34.0219 36.7269 33.9138 36.4662 33.7216 36.274C33.5293 36.0817 33.2686 35.9736 32.9967 35.9734ZM36.9988 36.0006C36.8675 36.0001 36.7373 36.0254 36.6158 36.0752C36.4943 36.125 36.3837 36.1982 36.2905 36.2907C36.1973 36.3832 36.1232 36.4932 36.0725 36.6143C36.0217 36.7354 35.9954 36.8654 35.9949 36.9967C35.9941 37.1288 36.0195 37.2598 36.0697 37.3821C36.1198 37.5043 36.1937 37.6155 36.2871 37.709C36.3804 37.8025 36.4914 37.8766 36.6135 37.927C36.7357 37.9774 36.8666 38.0031 36.9988 38.0026H40.9989C41.1303 38.0021 41.2604 37.9756 41.3817 37.9248C41.503 37.8739 41.613 37.7997 41.7055 37.7062C41.7981 37.6128 41.8712 37.502 41.9209 37.3803C41.9706 37.2585 41.9958 37.1282 41.995 36.9967C41.9939 36.7328 41.8887 36.4801 41.7021 36.2935C41.5155 36.1069 41.2627 36.0016 40.9989 36.0006H36.9988ZM17.2074 43.9988H19.4535L14.5784 53.5791C14.3192 54.0883 13.7418 54.2758 13.2327 54.0166C12.7244 53.7578 12.5362 53.1776 12.7952 52.6689L17.2074 43.9988ZM36.5398 43.9988H38.784L43.1981 52.6689C43.4571 53.1776 43.2689 53.7578 42.7606 54.0166C42.2514 54.2758 41.6741 54.0883 41.4149 53.5791L36.5398 43.9988ZM28.0006 51.0907C28.8013 51.0907 29.4244 51.7217 29.4244 52.5224C29.4244 53.3231 28.8013 53.9463 28.0006 53.9463C27.1998 53.9463 26.5669 53.3231 26.5669 52.5224C26.5669 51.7217 27.1998 51.0907 28.0006 51.0907Z" fill="#424241"/>
</svg>
