<svg width="222" height="35" viewBox="0 0 222 35" fill="none" xmlns="http://www.w3.org/2000/svg">
<path d="M-9.76026e-06 12.852C-9.76026e-06 10.38 0.55199 8.172 1.65599 6.22799C2.78399 4.25999 4.30799 2.73599 6.22799 1.656C8.17199 0.551995 10.344 -4.76837e-06 12.744 -4.76837e-06C15.552 -4.76837e-06 18.012 0.719995 20.124 2.16C22.236 3.6 23.712 5.592 24.552 8.13599H18.756C18.18 6.93599 17.364 6.03599 16.308 5.43599C15.276 4.83599 14.076 4.53599 12.708 4.53599C11.244 4.53599 9.93599 4.88399 8.78399 5.57999C7.65599 6.25199 6.76799 7.21199 6.11999 8.45999C5.49599 9.708 5.18399 11.172 5.18399 12.852C5.18399 14.508 5.49599 15.972 6.11999 17.244C6.76799 18.492 7.65599 19.464 8.78399 20.16C9.93599 20.832 11.244 21.168 12.708 21.168C14.076 21.168 15.276 20.868 16.308 20.268C17.364 19.644 18.18 18.732 18.756 17.532H24.552C23.712 20.1 22.236 22.104 20.124 23.544C18.036 24.96 15.576 25.668 12.744 25.668C10.344 25.668 8.17199 25.128 6.22799 24.048C4.30799 22.944 2.78399 21.42 1.65599 19.476C0.55199 17.532 -9.76026e-06 15.324 -9.76026e-06 12.852ZM37.7128 25.776C35.7928 25.776 34.0648 25.356 32.5288 24.516C30.9928 23.652 29.7808 22.44 28.8928 20.88C28.0288 19.32 27.5968 17.52 27.5968 15.48C27.5968 13.44 28.0408 11.64 28.9288 10.08C29.8408 8.52 31.0768 7.32 32.6368 6.48C34.1968 5.616 35.9368 5.184 37.8568 5.184C39.7768 5.184 41.5168 5.616 43.0768 6.48C44.6368 7.32 45.8608 8.52 46.7488 10.08C47.6608 11.64 48.1168 13.44 48.1168 15.48C48.1168 17.52 47.6488 19.32 46.7128 20.88C45.8008 22.44 44.5528 23.652 42.9688 24.516C41.4088 25.356 39.6568 25.776 37.7128 25.776ZM37.7128 21.384C38.6248 21.384 39.4768 21.168 40.2688 20.736C41.0848 20.28 41.7328 19.608 42.2128 18.72C42.6928 17.832 42.9328 16.752 42.9328 15.48C42.9328 13.584 42.4288 12.132 41.4208 11.124C40.4368 10.092 39.2248 9.576 37.7848 9.576C36.3448 9.576 35.1328 10.092 34.1488 11.124C33.1888 12.132 32.7088 13.584 32.7088 15.48C32.7088 17.376 33.1768 18.84 34.1128 19.872C35.0728 20.88 36.2728 21.384 37.7128 21.384ZM56.4218 21.312H65.3138V25.452H50.6978V21.384L59.4098 9.648H50.7338V5.508H65.2058V9.576L56.4218 21.312ZM88.2962 5.508L75.9482 34.884H70.5842L74.9042 24.948L66.9122 5.508H72.5642L77.7122 19.44L82.9322 5.508H88.2962Z" fill="#9B9A78"/>
<path d="M98.3672 12.852C98.3672 10.38 98.9192 8.172 100.023 6.22799C101.151 4.25999 102.675 2.73599 104.595 1.656C106.539 0.551995 108.711 -4.76837e-06 111.111 -4.76837e-06C113.919 -4.76837e-06 116.379 0.719995 118.491 2.16C120.603 3.6 122.079 5.592 122.919 8.13599H117.123C116.547 6.93599 115.731 6.03599 114.675 5.43599C113.643 4.83599 112.443 4.53599 111.075 4.53599C109.611 4.53599 108.303 4.88399 107.151 5.57999C106.023 6.25199 105.135 7.21199 104.487 8.45999C103.863 9.708 103.551 11.172 103.551 12.852C103.551 14.508 103.863 15.972 104.487 17.244C105.135 18.492 106.023 19.464 107.151 20.16C108.303 20.832 109.611 21.168 111.075 21.168C112.443 21.168 113.643 20.868 114.675 20.268C115.731 19.644 116.547 18.732 117.123 17.532H122.919C122.079 20.1 120.603 22.104 118.491 23.544C116.403 24.96 113.943 25.668 111.111 25.668C108.711 25.668 106.539 25.128 104.595 24.048C102.675 22.944 101.151 21.42 100.023 19.476C98.9192 17.532 98.3672 15.324 98.3672 12.852ZM136.08 25.776C134.16 25.776 132.432 25.356 130.896 24.516C129.36 23.652 128.148 22.44 127.26 20.88C126.396 19.32 125.964 17.52 125.964 15.48C125.964 13.44 126.408 11.64 127.296 10.08C128.208 8.52 129.444 7.32 131.004 6.48C132.564 5.616 134.304 5.184 136.224 5.184C138.144 5.184 139.884 5.616 141.444 6.48C143.004 7.32 144.228 8.52 145.116 10.08C146.028 11.64 146.484 13.44 146.484 15.48C146.484 17.52 146.016 19.32 145.08 20.88C144.168 22.44 142.92 23.652 141.336 24.516C139.776 25.356 138.024 25.776 136.08 25.776ZM136.08 21.384C136.992 21.384 137.844 21.168 138.636 20.736C139.452 20.28 140.1 19.608 140.58 18.72C141.06 17.832 141.3 16.752 141.3 15.48C141.3 13.584 140.796 12.132 139.788 11.124C138.804 10.092 137.592 9.576 136.152 9.576C134.712 9.576 133.5 10.092 132.516 11.124C131.556 12.132 131.076 13.584 131.076 15.48C131.076 17.376 131.544 18.84 132.48 19.872C133.44 20.88 134.64 21.384 136.08 21.384ZM155.221 8.60399C155.869 7.54799 156.709 6.72 157.741 6.12C158.797 5.51999 159.997 5.21999 161.341 5.21999V10.512H160.009C158.425 10.512 157.225 10.884 156.409 11.628C155.617 12.372 155.221 13.668 155.221 15.516V25.452H150.181V5.508H155.221V8.60399ZM175.788 5.21999C178.164 5.21999 180.084 5.97599 181.548 7.488C183.012 8.976 183.744 11.064 183.744 13.752V25.452H178.704V14.436C178.704 12.852 178.308 11.64 177.516 10.8C176.724 9.936 175.644 9.504 174.276 9.504C172.884 9.504 171.78 9.936 170.964 10.8C170.172 11.64 169.776 12.852 169.776 14.436V25.452H164.736V5.508H169.776V7.992C170.448 7.128 171.3 6.456 172.332 5.976C173.388 5.47199 174.54 5.21999 175.788 5.21999ZM207.076 15.048C207.076 15.768 207.028 16.416 206.932 16.992H192.352C192.472 18.432 192.976 19.56 193.864 20.376C194.752 21.192 195.844 21.6 197.14 21.6C199.012 21.6 200.344 20.796 201.136 19.188H206.572C205.996 21.108 204.892 22.692 203.26 23.94C201.628 25.164 199.624 25.776 197.248 25.776C195.328 25.776 193.6 25.356 192.064 24.516C190.552 23.652 189.364 22.44 188.5 20.88C187.66 19.32 187.24 17.52 187.24 15.48C187.24 13.416 187.66 11.604 188.5 10.044C189.34 8.48399 190.516 7.284 192.028 6.444C193.54 5.604 195.28 5.184 197.248 5.184C199.144 5.184 200.836 5.59199 202.324 6.40799C203.836 7.22399 205 8.38799 205.816 9.9C206.656 11.388 207.076 13.104 207.076 15.048ZM201.856 13.608C201.832 12.312 201.364 11.28 200.452 10.512C199.54 9.72 198.424 9.324 197.104 9.324C195.856 9.324 194.8 9.708 193.936 10.476C193.096 11.22 192.58 12.264 192.388 13.608H201.856ZM215.795 8.60399C216.443 7.54799 217.283 6.72 218.315 6.12C219.371 5.51999 220.571 5.21999 221.915 5.21999V10.512H220.583C218.999 10.512 217.799 10.884 216.983 11.628C216.191 12.372 215.795 13.668 215.795 15.516V25.452H210.755V5.508H215.795V8.60399Z" fill="#313131"/>
</svg>
